# xmcd
#
# Track frame offsets: 
#        150
#        16634
#        30472
#        48304
#        67797
#        87924
#        104817
#        124674
#        138245
#        151954
#        170613
#        186854
#
# Disc length: 2807 seconds
#
# Revision: 0
# Processed by: cddbd v1.5.2PL0 Copyright (c) Steve Scherf et al.
# Submitted via: ExactAudioCopy v1.0b1
#
DISCID=920af50c
DTITLE=Yarn - This is the Year
DYEAR=2016
DGENRE=Country
TTITLE0=Carolina Heart
TTITLE1=This is the Year
TTITLE2=Love Hate
TTITLE3=Fallin'
TTITLE4=I'm the Man
TTITLE5=Now You're Gone
TTITLE6=Sweet Dolly
TTITLE7=Easy Road
TTITLE8=Long way to Texas
TTITLE9=Life is Weird
TTITLE10=Simple Life I Ride
TTITLE11=I Let You Down
EXTD=
EXTT0=
EXTT1=
EXTT2=
EXTT3=
EXTT4=
EXTT5=
EXTT6=
EXTT7=
EXTT8=
EXTT9=
EXTT10=
EXTT11=
PLAYORDER=
